<mxfile host="app.diagrams.net" modified="2021-04-23T09:17:38.888Z" agent="5.0 (Windows NT 10.0; Win64; x64) AppleWebKit/537.36 (KHTML, like Gecko) Chrome/90.0.4430.85 Safari/537.36 Edg/90.0.818.46" etag="Rv9A4AsC71joubkaPkrj" version="14.6.6" type="github">
  <diagram id="S11QCCi5XTEbJnYCbeQP" name="第 1 页">
    <mxGraphModel dx="1139" dy="745" grid="1" gridSize="10" guides="1" tooltips="1" connect="1" arrows="0" fold="1" page="1" pageScale="1" pageWidth="827" pageHeight="1169" math="0" shadow="0">
      <root>
        <mxCell id="0" />
        <mxCell id="1" parent="0" />
      </root>
    </mxGraphModel>
  </diagram>
</mxfile>
